# xmcd CD database file
#
# Track frame offsets:
#	150
#	13604
#	31449
#	41544
#	58575
#	74633
#	84337
#	98709
#	117201
#	127909
#	140493
#	150186
#	168274
#	178692
#
# Disc length: 2649 seconds
#
# Revision: 0
# Processed by: cddbd v1.5.2PL0 Copyright (c) Steve Scherf et al.
# Submitted via: CDex 1.51
#
DISCID=ad0a570e
DTITLE=Westcoasters - Walk on the Wild Side
DYEAR=1973
DGENRE=Jazz
TTITLE0=The fool of the village
TTITLE1=She's a woman
TTITLE2=Take me to the Pilot
TTITLE3=Look to the sky
TTITLE4=Major ending
TTITLE5=Waiting for "Charlotte" to come home
TTITLE6=Jazz goes to Siwash
TTITLE7=Up tight
TTITLE8=Theme from Mr Broadway
TTITLE9=Que sera sera
TTITLE10=So nice
TTITLE11=Mind your write
TTITLE12=Walk o the Wild Side
TTITLE13=Tilly
EXTD=YEAR: 1973
EXTT0=
EXTT1=
EXTT2=
EXTT3=
EXTT4=
EXTT5=
EXTT6=
EXTT7=
EXTT8=
EXTT9=
EXTT10=
EXTT11=
EXTT12=
EXTT13=
PLAYORDER=
